<svg width="32" height="32" viewBox="0 0 32 32" fill="none" xmlns="http://www.w3.org/2000/svg">
<path fill-rule="evenodd" clip-rule="evenodd" d="M14.5639 0.0591807C13.2761 0.173458 11.7031 0.522672 10.5145 0.958313C9.71085 1.25277 8.16715 2.01115 7.45624 2.46068C5.99884 3.38222 4.52722 4.69766 3.46445 6.02886C1.6391 8.31521 0.521285 10.9605 0.0794305 14.0395C-0.0264768 14.7776 -0.0264768 17.2441 0.0794305 17.9822C0.381557 20.0875 1.00091 21.9998 1.92401 23.6773C4.18069 27.7784 8.20141 30.7696 12.6803 31.6794C14.0165 31.9509 14.5252 32 15.9997 32C17.9341 32 19.2835 31.7902 21.0101 31.221C25.848 29.6262 29.6252 25.8518 31.2212 21.0175C31.7956 19.278 32.0022 17.9413 32 15.9796C31.9983 14.4552 31.9263 13.7718 31.6274 12.4436C30.7102 8.36791 28.1259 4.72613 24.5432 2.46068C23.8323 2.01115 22.2886 1.25277 21.485 0.958313C19.366 0.181781 16.8566 -0.144215 14.5639 0.0591807ZM17.8917 1.46636C20.4195 1.76645 23.0622 2.88437 25.1748 4.54721C25.7394 4.99155 27.0273 6.27851 27.472 6.84263C28.7553 8.47061 29.7958 10.5867 30.2724 12.5375C30.8144 14.7561 30.8042 17.3451 30.2446 19.583C29.8769 21.0537 29.0703 22.8731 28.2312 24.1246C25.8268 27.711 22.1025 30.0126 17.7534 30.6C17.4261 30.6441 16.637 30.6803 15.9997 30.6803C14.2617 30.6803 12.9545 30.4652 11.3025 29.9073C9.07228 29.1543 7.33499 28.0702 5.63321 26.3696C4.33583 25.0732 3.57074 23.9999 2.77734 22.3631C2.07996 20.9245 1.64117 19.4692 1.43756 17.9197C1.30817 16.9353 1.30811 15.0876 1.43731 14.1021C1.76768 11.5835 2.73312 9.23957 4.31153 7.12407C4.88146 6.36024 6.34186 4.90093 7.10626 4.33142C10.2941 1.95658 13.9163 0.994298 17.8917 1.46636ZM9.86198 9.35528C9.46835 9.48483 9.25848 9.79806 9.33182 10.1466C9.36482 10.3035 9.98874 10.9632 12.1999 13.179L15.0258 16.0109L12.1999 18.8428C9.98874 21.0586 9.36482 21.7183 9.33182 21.8751C9.23781 22.322 9.68386 22.7677 10.1311 22.6738C10.2881 22.6408 10.9482 22.0174 13.1657 19.8079L15.9997 16.984L18.8337 19.8079C21.0512 22.0174 21.7114 22.6408 21.8683 22.6738C22.3156 22.7677 22.7616 22.322 22.6676 21.8751C22.6346 21.7183 22.0107 21.0586 19.7995 18.8428L16.9736 16.0109L19.7995 13.179C22.0107 10.9632 22.6346 10.3035 22.6676 10.1466C22.7445 9.78129 22.4671 9.39628 22.1061 9.3673C21.7179 9.33607 21.693 9.35772 18.8367 12.2074L15.9997 15.0377L13.1628 12.2074C11.6025 10.6507 10.2802 9.37706 10.2243 9.37706C10.1684 9.37706 10.0852 9.36523 10.0393 9.35071C9.99344 9.33626 9.91365 9.33832 9.86198 9.35528Z" fill="#C6C6C6"/>
</svg>
