<svg width="10" height="10" viewBox="0 0 10 10" fill="none" xmlns="http://www.w3.org/2000/svg">
<path fill-rule="evenodd" clip-rule="evenodd" d="M3.69908 0.0242046C3.52092 0.0638634 3.37317 0.141511 3.23413 0.268562C3.00215 0.480601 2.92146 0.711716 2.92146 1.16425V1.45606L1.58921 1.46249C0.292129 1.46876 0.254848 1.47015 0.176926 1.51594C0.0583611 1.58558 -0.0101613 1.7173 0.00122859 1.8537C0.0114749 1.97675 0.0633471 2.06078 0.176674 2.1379C0.247255 2.18593 0.276485 2.18936 0.615552 2.18936C0.885845 2.18936 0.981287 2.19668 0.9884 2.21795C0.993638 2.23369 1.09086 3.68229 1.20444 5.43709C1.33371 7.43437 1.42451 8.69607 1.44722 8.81061C1.55677 9.36313 1.96809 9.79773 2.53304 9.95788C2.67203 9.99728 2.81161 9.99991 4.7626 9.99991C7.1016 9.99991 6.96101 10.0095 7.31437 9.82598C7.72899 9.61067 8.02005 9.20198 8.09037 8.73637C8.10321 8.6514 8.20174 7.15644 8.30935 5.41422C8.41695 3.672 8.50915 2.23369 8.51425 2.21795C8.52113 2.19666 8.61632 2.18936 8.88678 2.18936C9.22584 2.18936 9.25507 2.18593 9.32565 2.1379C9.43512 2.06341 9.48898 1.97984 9.50199 1.86436C9.51693 1.73185 9.44907 1.59555 9.33185 1.52269L9.24538 1.46892L7.91555 1.46249L6.58572 1.45609L6.57581 1.10798C6.56749 0.815369 6.55761 0.738613 6.51376 0.626246C6.41558 0.374593 6.18906 0.155166 5.92444 0.0553782C5.79634 0.00707395 5.75826 0.00522143 4.80834 0.000807263C4.10141 -0.0024862 3.78952 0.0041007 3.69908 0.0242046ZM5.78227 0.834604C5.84812 0.908318 5.84899 0.912892 5.84899 1.18339V1.45748H4.75116H3.65334V1.18479C3.65334 0.926295 3.65636 0.908501 3.7113 0.843203C3.74318 0.805305 3.79206 0.769695 3.81994 0.764023C3.84782 0.758374 4.28573 0.755126 4.79309 0.756818L5.71556 0.759906L5.78227 0.834604ZM7.77043 2.26369C7.77054 2.29201 7.68263 3.73032 7.57499 5.45996C7.44225 7.59358 7.36869 8.6425 7.34619 8.72212C7.28011 8.95609 7.07333 9.17051 6.84762 9.2391C6.77393 9.26149 6.29495 9.26803 4.72829 9.26803H2.70418L2.57734 9.20854C2.50758 9.17581 2.41401 9.11701 2.36939 9.07783C2.27166 8.99202 2.15072 8.77312 2.13256 8.64911C2.11877 8.55495 1.75502 2.42965 1.75502 2.29144V2.21223H4.7626H7.77018L7.77043 2.26369ZM3.1042 3.47587C3.06262 3.50419 3.00707 3.55638 2.98074 3.5919C2.93301 3.65631 2.9329 3.66186 2.9329 5.73442C2.9329 7.80697 2.93301 7.81253 2.98074 7.87693C3.14713 8.10148 3.42767 8.10148 3.59406 7.87693C3.64179 7.81253 3.64191 7.80697 3.64191 5.73442C3.64191 3.66186 3.64179 3.65631 3.59406 3.5919C3.51293 3.48244 3.40672 3.42441 3.2874 3.42441C3.21348 3.42441 3.15614 3.44051 3.1042 3.47587ZM4.56797 3.47587C4.52639 3.50419 4.47083 3.55638 4.44451 3.5919C4.39677 3.65631 4.39666 3.66186 4.39666 5.73442C4.39666 7.80697 4.39677 7.81253 4.44451 7.87693C4.61089 8.10148 4.89143 8.10148 5.05782 7.87693C5.10555 7.81253 5.10567 7.80697 5.10567 5.73442C5.10567 3.66186 5.10555 3.65631 5.05782 3.5919C4.9767 3.48244 4.87048 3.42441 4.75116 3.42441C4.67724 3.42441 4.61991 3.44051 4.56797 3.47587ZM6.03173 3.47587C5.99015 3.50419 5.93459 3.55638 5.90827 3.5919C5.86054 3.65631 5.86042 3.66186 5.86042 5.73442C5.86042 7.80697 5.86054 7.81253 5.90827 7.87693C6.07466 8.10148 6.3552 8.10148 6.52159 7.87693C6.56932 7.81253 6.56943 7.80697 6.56943 5.73442C6.56943 3.66186 6.56932 3.65631 6.52159 3.5919C6.44046 3.48244 6.33425 3.42441 6.21493 3.42441C6.14101 3.42441 6.08367 3.44051 6.03173 3.47587Z" fill="#DB2C2C"/>
</svg>
