<svg width="16" height="16" viewBox="0 0 16 16" fill="none" xmlns="http://www.w3.org/2000/svg">
<path d="M0.784871 13.5881C0.402231 13.9707 0.384011 14.654 0.793982 15.0549C1.19484 15.4557 1.87813 15.4466 2.26077 15.064L7.83637 9.47926L13.4211 15.064C13.8128 15.4557 14.487 15.4557 14.8879 15.0549C15.2796 14.6449 15.2887 13.9798 14.8879 13.5881L9.31227 8.00337L14.8879 2.42776C15.2887 2.03601 15.2887 1.36183 14.8879 0.960974C14.4779 0.569224 13.8128 0.560113 13.4211 0.951863L7.83637 6.53658L2.26077 0.951863C1.87813 0.569224 1.18573 0.551003 0.793982 0.960974C0.393121 1.36183 0.402231 2.04512 0.784871 2.42776L6.36959 8.00337L0.784871 13.5881Z" fill="black"/>
</svg>
