<svg width="16" height="16" viewBox="0 0 16 16" fill="none" xmlns="http://www.w3.org/2000/svg">
<path d="M1.24953 8.71687H6.80692V14.2743C6.80692 14.8391 7.27155 15.3128 7.84551 15.3128C8.41947 15.3128 8.8841 14.8391 8.8841 14.2743V8.71687H14.4415C15.0063 8.71687 15.4801 8.25223 15.4801 7.67827C15.4801 7.10431 15.0063 6.63968 14.4415 6.63968H8.8841V1.08229C8.8841 0.517445 8.41947 0.0437012 7.84551 0.0437012C7.27155 0.0437012 6.80692 0.517445 6.80692 1.08229V6.63968H1.24953C0.684682 6.63968 0.210938 7.10431 0.210938 7.67827C0.210938 8.25223 0.684682 8.71687 1.24953 8.71687Z" fill="#707070"/>
</svg>
