<svg width="134" height="38" viewBox="0 0 134 38" fill="none" xmlns="http://www.w3.org/2000/svg">
<path fill-rule="evenodd" clip-rule="evenodd" d="M23.341 32.5978H19.5789L14.8361 26.0354C15.3266 24.8258 15.8736 23.7192 16.4477 22.745L23.341 32.5978ZM17.147 14.3474C16.2389 14.798 15.3331 15.3198 14.4523 15.9219L7.84961 6.47461H11.8329L17.147 14.3474ZM12.6448 17.3094C12.1804 17.7096 11.7286 18.1366 11.2934 18.5921C10.9333 18.969 10.5935 19.3457 10.2726 19.7213L4.26758 11.4125V32.5978H1V6.47461H5.06455L12.6448 17.3094Z" fill="black"/>
<path d="M19.5789 32.5978L19.1737 32.8907L19.3234 33.0978H19.5789V32.5978ZM23.341 32.5978V33.0978H24.301L23.7506 32.3112L23.341 32.5978ZM14.8361 26.0354L14.3727 25.8475L14.2687 26.104L14.4308 26.3283L14.8361 26.0354ZM16.4477 22.745L16.8574 22.4584L16.4118 21.8214L16.017 22.4911L16.4477 22.745ZM14.4523 15.9219L14.0425 16.2083L14.3259 16.6139L14.7344 16.3346L14.4523 15.9219ZM17.147 14.3474L17.3693 14.7953L17.8812 14.5413L17.5615 14.0676L17.147 14.3474ZM7.84961 6.47461V5.97461H6.89015L7.43978 6.76104L7.84961 6.47461ZM11.8329 6.47461L12.2473 6.19487L12.0986 5.97461H11.8329V6.47461ZM11.2934 18.5921L10.9319 18.2467L11.2934 18.5921ZM12.6448 17.3094L12.9712 17.6882L13.3136 17.3931L13.0545 17.0228L12.6448 17.3094ZM10.2726 19.7213L9.86737 20.0142L10.2398 20.5294L10.6528 20.0461L10.2726 19.7213ZM4.26758 11.4125L4.67282 11.1196L3.76758 9.86712V11.4125H4.26758ZM4.26758 32.5978V33.0978H4.76758V32.5978H4.26758ZM1 32.5978H0.5V33.0978H1V32.5978ZM1 6.47461V5.97461H0.5V6.47461H1ZM5.06455 6.47461L5.47424 6.18798L5.32496 5.97461H5.06455V6.47461ZM19.5789 33.0978H23.341V32.0978H19.5789V33.0978ZM14.4308 26.3283L19.1737 32.8907L19.9842 32.3049L15.2413 25.7426L14.4308 26.3283ZM16.017 22.4911C15.4295 23.4879 14.8719 24.6167 14.3727 25.8475L15.2994 26.2234C15.7814 25.0348 16.3176 23.9504 16.8785 22.9989L16.017 22.4911ZM23.7506 32.3112L16.8574 22.4584L16.038 23.0317L22.9313 32.8844L23.7506 32.3112ZM14.7344 16.3346C15.5946 15.7467 16.4802 15.2365 17.3693 14.7953L16.9248 13.8995C15.9977 14.3595 15.0717 14.8929 14.1701 15.5091L14.7344 16.3346ZM7.43978 6.76104L14.0425 16.2083L14.8621 15.6354L8.25944 6.18818L7.43978 6.76104ZM11.8329 5.97461H7.84961V6.97461H11.8329V5.97461ZM17.5615 14.0676L12.2473 6.19487L11.4184 6.75435L16.7326 14.6271L17.5615 14.0676ZM11.6549 18.9375C12.0786 18.4942 12.5186 18.0782 12.9712 17.6882L12.3184 16.9306C11.8422 17.341 11.3787 17.7791 10.9319 18.2467L11.6549 18.9375ZM10.6528 20.0461C10.9676 19.6776 11.3013 19.3077 11.6549 18.9375L10.9319 18.2467C10.5654 18.6303 10.2193 19.0139 9.89246 19.3965L10.6528 20.0461ZM3.86234 11.7054L9.86737 20.0142L10.6778 19.4284L4.67282 11.1196L3.86234 11.7054ZM4.76758 32.5978V11.4125H3.76758V32.5978H4.76758ZM1 33.0978H4.26758V32.0978H1V33.0978ZM0.5 6.47461V32.5978H1.5V6.47461H0.5ZM5.06455 5.97461H1V6.97461H5.06455V5.97461ZM13.0545 17.0228L5.47424 6.18798L4.65487 6.76124L12.2351 17.596L13.0545 17.0228Z" fill="black"/>
<path fill-rule="evenodd" clip-rule="evenodd" d="M15.7537 17.7418C16.6593 16.9276 17.6156 16.2586 18.5601 15.7152L18.9553 16.2652C17.9941 16.9788 17.1528 17.7768 16.3949 18.634L15.7537 17.7418ZM14.9993 18.4675C14.1579 19.3339 13.38 20.3406 12.7217 21.5053L12.666 21.6042L13.886 22.0562C14.4741 21.1203 15.0979 20.2109 15.7905 19.3508L15.6878 19.4257L14.9993 18.4675ZM10.465 26.2543C10.8888 25.1379 11.4438 23.8904 12.1633 22.5271L13.3735 22.9754C12.832 24.0728 12.4087 25.3618 12.0844 26.6501L10.465 26.2543ZM10.1127 27.2392C9.29823 29.669 9.14994 31.3507 9.23436 32.0871L11.1931 32.261C11.2568 31.2119 11.4563 29.4905 11.8485 27.6635L10.1127 27.2392ZM19.8077 15.6757L19.4813 15.2214C21.3487 14.2913 23.0867 13.8414 24.191 13.7132C22.4961 14.2042 21.0566 14.8731 19.8077 15.6757Z" fill="#FFC900"/>
<path fill-rule="evenodd" clip-rule="evenodd" d="M53.2776 15.2535C51.7969 16.2584 51.7024 16.2738 51.9584 15.4682C52.2148 14.6596 52.0473 14.6008 49.4849 14.6008H46.7361L44.3854 25.8733L42.0352 37.1457L44.5971 37.2754C47.4606 37.4201 47.6504 37.2746 48.0682 34.6173C48.2206 33.6459 48.5427 32.112 48.7832 31.208L49.2208 29.5646L50.2939 30.6378C52.5703 32.9142 57.078 32.4581 59.8667 29.6694C63.9137 25.6225 63.9467 16.9051 59.9226 14.8245C57.9553 13.8072 55.1409 13.9888 53.2776 15.2535ZM75.7942 14.4737C75.4399 14.6025 74.5923 15.2153 73.9108 15.8354L72.6718 16.9626L72.9527 15.7817L73.234 14.6008H70.523H67.8124L66.1669 22.6525C65.2621 27.0812 64.4977 30.8976 64.4681 31.1337C64.4384 31.3699 65.6009 31.6203 67.0511 31.6899L69.6873 31.8165L70.4062 28.4692C72.2179 20.0339 72.9647 18.895 76.6857 18.895C77.8207 18.895 78.8389 18.7499 78.9479 18.573C79.057 18.3961 79.2833 17.3332 79.4512 16.2111L79.7565 14.1713L78.0977 14.2053C77.1851 14.2237 76.1485 14.3448 75.7942 14.4737ZM85.2545 14.6493C81.6052 16.1055 79.194 19.9974 79.1725 24.4656C79.1455 30.1731 83.4265 33.0898 89.8696 31.7538C91.8359 31.3463 92.6918 30.88 94.1523 29.4203C95.1558 28.4172 95.9773 27.378 95.9773 27.1109C95.9773 26.803 95.0317 26.6248 93.4008 26.6248C91.3966 26.6248 90.6335 26.8154 89.9653 27.4836C88.1115 29.3374 84.3828 28.047 84.3828 25.5512V24.4776H90.6095H96.8362V21.7868C96.8362 18.3351 95.8597 16.4516 93.3952 15.1483C91.3962 14.091 87.2844 13.839 85.2545 14.6493ZM104.351 14.6235C101.837 15.4369 100.272 17.4324 100.272 19.8256C100.272 22.2308 101.627 23.5153 105.213 24.506C108.533 25.4232 109.516 26.258 108.816 27.5652C108.149 28.8123 104.52 28.5125 103.927 27.1615C103.557 26.3173 103.185 26.1953 100.982 26.1953H98.4607L98.7416 27.3763C99.5008 30.5708 101.77 31.9905 106.069 31.96C111.879 31.9187 114.443 30.0894 114.443 25.9858C114.443 23.9778 114.287 23.5638 113.179 22.6324C112.485 22.0475 110.891 21.3286 109.637 21.0345C106.642 20.3315 105.854 19.8913 105.854 18.9221C105.854 17.225 109.542 17.0288 110.464 18.6765C110.766 19.215 111.392 19.3425 113.243 19.2407L115.633 19.1098L115.145 17.6471C114.349 15.2591 112.765 14.4045 108.938 14.2985C107.124 14.2482 105.06 14.3946 104.351 14.6235ZM121.314 15.1118C118.691 16.458 117.552 18.6902 118.269 21.0817C118.838 22.9815 119.732 23.5689 123.771 24.6966C126.572 25.479 127.469 26.4908 126.45 27.7189C125.364 29.0265 121.314 28.1393 121.314 26.5943C121.314 26.3748 120.167 26.1953 118.767 26.1953H116.221L116.573 27.4239C117.575 30.9199 119.241 31.9501 123.89 31.9501C129.318 31.9501 132.479 29.7789 132.479 26.051C132.479 23.1786 131.244 22.0732 126.716 20.8906C123.734 20.112 123.074 19.604 123.718 18.5833C124.654 17.0987 128.184 17.1645 128.184 18.6666C128.184 19.1858 128.738 19.3245 130.807 19.3245H133.431L133.143 18.1435C132.986 17.4943 132.285 16.3829 131.586 15.6743C130.408 14.4805 130.057 14.3762 126.781 14.2529C123.769 14.14 122.96 14.2671 121.314 15.1118ZM90.5751 18.515C91.3146 19.0969 91.6826 19.753 91.5989 20.3401C91.4804 21.1732 91.1643 21.2685 88.1403 21.3823C86.3101 21.4514 84.8191 21.3548 84.8272 21.1676C84.8637 20.3581 86.0618 18.7297 87.0066 18.2062C88.4538 17.4041 89.2499 17.4728 90.5751 18.515ZM56.792 19.2154C57.0875 19.6019 57.3288 20.9155 57.3288 22.1342C57.3288 26.0961 54.4212 28.9072 51.8244 27.4557C49.5596 26.1902 50.1685 20.4509 52.7356 18.865C54.2584 17.9245 55.9151 18.0675 56.792 19.2154Z" fill="black"/>
<path d="M35.5742 18.3146L37.3622 22.7376C39.9596 18.9357 53.191 3.87858 78.8822 2.56109C99.4351 1.50709 113.306 7.10331 117.673 10.0332L114.718 12.1035L123.884 11.7271L118.859 3.87858C118.884 4.96394 118.919 7.37183 118.859 8.32042C99.021 -1.24083 76.6612 -1.67372 61.3407 2.56109C49.0842 5.94893 39.0562 14.475 35.5742 18.3146Z" fill="#FFC900"/>
<path d="M36.1772 31.7911H41.5037L37.5888 23.4344L34.1822 27.5751L36.1772 31.7911Z" fill="#FFC900"/>
<path d="M23.7363 31.7911H29.9662L36.1772 22.7568L33.4293 14.626H27.7453L31.6601 22.7568L23.7363 31.7911Z" fill="#FFC900"/>
</svg>
