<svg width="543" height="348" viewBox="0 0 543 348" fill="none" xmlns="http://www.w3.org/2000/svg">
<circle opacity="0.6" cx="302.5" cy="112.5" r="110.5" fill="#FFEA9D"/>
<path d="M445.216 140.112L447.28 143.936L453.799 141.285L457.493 146.5L462.686 145.305L463.295 147.934L456.341 149.521L452.821 144.588L446.063 147.348L442.956 141.589L445.216 140.112Z" fill="#50BFA5"/>
<path d="M13.2363 153.019H73.9046V345.085H13.2363V153.019Z" fill="#86B1F2"/>
<path d="M23.3623 165.296H38.5511V189.351H23.3623V165.296Z" fill="#355389"/>
<path d="M23.166 198.564H38.3548V222.618H23.166V198.564Z" fill="#355389"/>
<path d="M22.9717 231.831H38.1605V255.885H22.9717V231.831Z" fill="#355389"/>
<path d="M22.7539 265.099H37.9427V289.153H22.7539V265.099Z" fill="#355389"/>
<path d="M22.5576 298.345H37.7464V322.4H22.5576V298.345Z" fill="#355389"/>
<path d="M156.084 240.479H216.774V345.085H156.084V240.479Z" fill="#86B1F2"/>
<path d="M62.4297 63.3643H162.558V345.085H62.4297V63.3643Z" fill="#9BC1F9"/>
<path d="M125.945 79.812H149.022V90.0031H125.945V79.812Z" fill="white"/>
<path d="M89.8311 79.812H112.908V90.0031H89.8311V79.812Z" fill="white"/>
<path d="M407.428 277.137H471.486V345.215H407.428V277.137Z" fill="#9BC1F9"/>
<path d="M453.798 281.114H463.272V290.588H453.798V281.114Z" fill="white"/>
<path d="M440.195 281.114H449.669V290.588H440.195V281.114Z" fill="white"/>
<path d="M453.798 294.39H463.272V303.864H453.798V294.39Z" fill="white"/>
<path d="M440.195 294.39H449.669V303.864H440.195V294.39Z" fill="white"/>
<path d="M453.06 309.448H462.534V318.922H453.06V309.448Z" fill="white"/>
<path d="M439.456 309.448H448.908V318.922H439.456V309.448Z" fill="white"/>
<path d="M453.06 322.725H462.534V332.199H453.06V322.725Z" fill="white"/>
<path d="M439.456 322.725H448.908V332.199H439.456V322.725Z" fill="white"/>
<path d="M465.271 257.061H525.939V345.086H465.271V257.061Z" fill="#86B1F2"/>
<path d="M511.685 261.732H521.137V271.206H511.685V261.732Z" fill="white"/>
<path d="M498.06 261.732H507.534V271.206H498.06V261.732Z" fill="white"/>
<path d="M511.685 275.009H521.137V284.483H511.685V275.009Z" fill="white"/>
<path d="M498.06 275.009H507.534V284.483H498.06V275.009Z" fill="white"/>
<path d="M512.467 289.698H521.919V299.15H512.467V289.698Z" fill="white"/>
<path d="M498.843 289.698H508.317V299.15H498.843V289.698Z" fill="white"/>
<path d="M512.467 302.975H521.919V312.449H512.467V302.975Z" fill="white"/>
<path d="M498.843 302.975H508.317V312.449H498.843V302.975Z" fill="white"/>
<path d="M336.656 40.0701L349.607 20.9483C350.91 19.0144 353.561 18.4929 355.495 19.8184L374.639 32.7473C376.573 34.0728 377.072 36.7021 375.769 38.6577L362.818 57.7795C361.514 59.7135 358.863 60.235 356.929 58.9095L337.807 45.9805C335.852 44.655 335.352 42.0258 336.656 40.0701Z" fill="#F7A491"/>
<path d="M361.97 29.2054C367.467 32.53 368.88 39.8528 365.012 45.0027C361.709 49.392 355.495 50.5871 350.801 47.7406C345.282 44.416 343.869 37.0932 347.737 31.9433C351.062 27.554 357.255 26.3589 361.97 29.2054Z" fill="white"/>
<path d="M356.929 39.8528C356.886 39.9252 356.842 39.9904 356.799 40.0483C356.473 40.396 355.908 40.4177 355.56 40.0918C355.212 39.7658 355.191 39.2226 355.517 38.8749L359.949 34.0293L356.929 39.8528Z" fill="#F47458"/>
<path d="M356.69 38.9835C356.994 39.266 357.038 39.7223 356.777 40.0483C356.495 40.3742 356.038 40.396 355.712 40.1352L349.867 35.1592L356.56 38.8966C356.603 38.9256 356.647 38.9546 356.69 38.9835V38.9835Z" fill="#F47458"/>
<path d="M227.9 19.7534L228.856 21.2093L226.749 21.8612L227.9 24.8598L225.228 26.4461L227.074 30.4443L223.207 31.2048L224.836 35.1812L221.381 36.3546L222.098 39.3533L220.36 39.2664L219.426 35.2464L222.707 34.1165L220.99 30.0097L224.793 29.2274L223.12 25.6203L225.858 24.0124L224.619 20.753L227.9 19.7534Z" fill="#9BC1F9"/>
<path d="M503.231 146.5C509.555 148.912 512.727 155.996 510.315 162.341C507.881 168.664 500.798 171.837 494.475 169.425C488.151 167.013 484.979 159.929 487.391 153.606C489.803 147.261 496.886 144.088 503.231 146.5Z" fill="#F7CC7F"/>
<path d="M504.275 162.102C502.993 165.492 499.212 167.187 495.822 165.905C492.432 164.623 490.737 160.82 492.041 157.452L504.275 162.102Z" fill="#EFEFEF"/>
<path d="M430.005 68.8181L433.525 66.5365L430.461 60.4957L435.198 56.5193L433.655 51.6084L436.133 50.8262L438.197 57.3884L433.721 61.1476L436.893 67.4491L431.613 70.8824L430.005 68.8181Z" fill="#466EB6"/>
<path d="M85.6816 35.5934L90.5707 38.353C90.5707 38.353 99.3494 37.2883 100.501 35.7672C101.653 34.2462 102.674 30.2045 103.869 30.3132C105.064 30.4436 107.281 31.2693 107.259 34.181C107.259 36.2887 103.13 41.569 103.478 42.286C103.695 42.7424 106.433 44.3938 108.476 45.5672C109.823 46.3494 110.605 47.8053 110.518 49.3698C110.475 50.4346 109.693 51.3255 108.65 51.4993L107.042 51.8035L107.215 53.4332C107.346 54.65 106.455 55.78 105.26 55.9321L104.021 56.0842L104.195 57.1055C104.434 58.4092 103.5 59.6695 102.174 59.7782L101.109 59.8868L101.088 60.1476C101.044 61.3209 100.132 62.2553 98.98 62.3422L97.9152 62.4074L84.9428 55.0846C83.726 54.411 82.6612 53.4767 81.8138 52.3467L77.6852 49.0221C77.2289 48.6527 77.1202 48.0226 77.4245 47.5228L84.1171 36.0497C84.443 35.4848 85.1384 35.2892 85.6816 35.5934V35.5934Z" fill="#FAE0B2"/>
<path d="M305.083 36.7449L308.733 36.4624L309.211 39.8305L312.818 39.7001L313.688 42.8508L316.404 43.1985L316.23 44.5675L312.601 44.1111L311.775 41.1125L308.038 41.2429L307.538 37.94L304.235 38.2007L305.083 36.7449Z" fill="#F48C7F"/>
<path d="M387.762 67.9716L391.543 65.2772L391.456 60.6488C391.456 60.2794 391.891 60.0621 392.173 60.2794L395.911 63.039L400.3 61.5397C400.648 61.4093 400.995 61.757 400.865 62.1047L399.387 66.5157L402.19 70.2097C402.408 70.5139 402.19 70.9485 401.821 70.9485L397.171 70.9051L394.52 74.686C394.303 74.9902 393.825 74.925 393.716 74.5773L392.325 70.1445L387.892 68.7756C387.523 68.6669 387.458 68.1889 387.762 67.9716V67.9716Z" fill="#FED333"/>
<path d="M479.416 204.67L483.197 201.975L483.132 197.325C483.132 196.956 483.545 196.738 483.849 196.956L487.587 199.715L491.976 198.216C492.324 198.086 492.671 198.433 492.541 198.781L491.063 203.192L493.845 206.908C494.084 207.19 493.866 207.625 493.497 207.625L488.847 207.581L486.174 211.384C485.957 211.688 485.501 211.601 485.37 211.254L483.98 206.821L479.547 205.452C479.199 205.343 479.112 204.887 479.416 204.67V204.67Z" fill="#FED333"/>
<path d="M3.06773 345.215H539.739C541.13 345.215 542.281 345.671 542.281 346.236C542.281 346.801 541.13 347.257 539.739 347.257H3.06773C1.65532 347.257 0.525391 346.801 0.525391 346.236C0.525391 345.671 1.65532 345.215 3.06773 345.215V345.215Z" fill="#3668B3"/>
<path d="M260.799 31.5747C264.884 31.5747 268.187 32.1614 268.187 32.8785C268.187 33.5955 264.884 34.1605 260.799 34.1605C256.714 34.1605 253.411 33.5955 253.411 32.8785C253.411 32.1614 256.714 31.5747 260.799 31.5747Z" fill="#F48C7F"/>
<path fill-rule="evenodd" clip-rule="evenodd" d="M260.799 9.75879C264.167 9.75879 266.883 12.1925 266.883 15.1911C266.883 18.1898 260.799 32.8788 260.799 32.8788C260.799 32.8788 254.715 18.1898 254.715 15.1911C254.715 12.1925 257.431 9.75879 260.799 9.75879V9.75879ZM260.799 18.3419C262.233 18.3419 263.385 17.1902 263.385 15.7561C263.385 14.3437 262.233 13.1703 260.799 13.1703C259.365 13.1703 258.213 14.3437 258.213 15.7561C258.213 17.1902 259.365 18.3419 260.799 18.3419Z" fill="#F47458"/>
<path d="M440.089 85.7891L466.925 101.673L446.347 106.323L440.089 85.7891Z" fill="#9BC1F9"/>
<path d="M444.434 109.627L468.489 104.173L458.645 120.817L427.746 102.543L437.329 86.3545L444.434 109.627Z" fill="#9BC1F9"/>
<path d="M171.512 31.0743C177.205 31.1829 181.42 27.5324 182.833 24.3599C181.985 23.7732 181.116 23.1865 180.247 22.5781C184.158 20.7094 187.983 18.8841 191.894 17.0371C191.546 21.3395 191.198 25.5767 190.873 29.8792C189.982 29.2707 189.156 28.7275 188.33 28.1625C184.223 32.7257 179.182 35.1377 173.033 34.4858C166.818 33.8339 162.429 30.4876 159.821 24.8162C162.755 28.7058 166.557 30.9873 171.512 31.0743V31.0743Z" fill="#86B1F2"/>
<path d="M168.861 9.64902C168.6 10.0619 168.6 10.2574 169.035 10.5399C169.752 10.9745 170.447 11.496 171.186 12.0175C167.296 13.8645 163.45 15.6898 159.561 17.5585C159.908 13.2561 160.234 9.01887 160.582 4.71646C161.473 5.32489 162.298 5.88985 163.102 6.43308C167.231 1.86992 172.25 -0.498577 178.4 0.0881152C184.375 0.674807 190.351 5.15105 191.611 9.93151C185.788 1.37015 173.815 1.45706 168.861 9.64902V9.64902Z" fill="#86B1F2"/>
<path d="M303.758 5.15137L310.32 10.6923L303.758 17.2763V5.15137Z" fill="#466EB6"/>
<path d="M121.47 12.9736L128.25 26.837L110.323 20.9483L121.47 12.9736Z" fill="#50BFA5"/>
<path d="M406.972 222.312H344.305V154.669H380.571C395.151 154.669 406.972 166.49 406.972 181.07V222.312Z" fill="#B75742"/>
<path d="M334.157 171.357H405.364C410.644 171.357 415.338 174.529 416.989 179.223L438.306 239.761C438.741 240.978 438.958 242.26 438.936 243.542L437.458 317.704H334.157V171.357Z" fill="#F47458"/>
<path d="M438.935 317.704H432.482C430.2 317.704 428.375 315.857 428.375 313.575V296.67C428.375 294.41 430.2 292.563 432.482 292.563H438.935V317.704Z" fill="#13375B"/>
<path d="M446.671 202.105C446.671 194.5 440.478 188.307 432.873 188.307H405.06V185.047H432.873C442.304 185.047 449.952 192.696 449.952 202.105V213.556H446.671V202.105Z" fill="#13375B"/>
<path d="M450.648 237.153H445.281C441.783 237.153 438.958 234.328 438.958 230.851V212.62C438.958 209.143 441.783 206.297 445.281 206.297H450.648C454.125 206.297 456.95 209.143 456.95 212.62V230.851C456.95 234.328 454.125 237.153 450.648 237.153Z" fill="#13375B"/>
<path d="M450.648 234.219H445.281C443.413 234.219 441.892 232.72 441.892 230.851V212.62C441.892 210.752 443.413 209.252 445.281 209.252H450.648C452.517 209.252 454.017 210.752 454.017 212.62V230.851C454.017 232.72 452.517 234.219 450.648 234.219Z" fill="#86B1F2"/>
<path d="M416.054 239.978H362.253C358.928 239.978 356.212 237.262 356.212 233.938V189.675C356.212 186.35 358.928 183.634 362.253 183.634H402.495C405.146 183.634 407.493 185.373 408.275 187.915L421.835 232.156C423.03 236.045 420.118 239.978 416.054 239.978Z" fill="#13375B"/>
<path d="M414.425 207.949L421.835 232.155C423.03 236.045 420.118 239.978 416.054 239.978H362.253C358.928 239.978 356.212 237.262 356.212 233.937V207.949H414.425Z" fill="#355389"/>
<path d="M423.03 316.4C423.03 332.98 409.601 346.408 393.044 346.387C376.747 346.387 363.101 332.741 363.101 316.444C363.079 299.886 376.508 286.457 393.087 286.457C409.362 286.479 423.008 300.103 423.03 316.4Z" fill="#13375B"/>
<path d="M151.152 315.965C151.152 332.262 138.288 345.474 122.447 345.474C106.607 345.474 93.7646 332.262 93.7646 315.965C93.7646 299.668 106.607 286.457 122.447 286.457C138.288 286.457 151.152 299.668 151.152 315.965Z" fill="#184655"/>
<path d="M335.873 276.613H39.2027C34.5309 276.613 30.75 272.833 30.75 268.182V94.1739C30.75 89.5021 34.5309 85.7212 39.2027 85.7212H335.873C340.523 85.7212 344.304 89.5021 344.304 94.1739V268.182C344.304 272.833 340.523 276.613 335.873 276.613Z" fill="#3C8F7C"/>
<path d="M39.2027 268.834C38.8333 268.834 38.5508 268.53 38.5508 268.182V94.1739C38.5508 93.8045 38.8333 93.522 39.2027 93.522H187.375V268.834H39.2027Z" fill="#184655"/>
<path d="M39.2027 140.001C38.8333 140.001 38.5508 139.914 38.5508 139.827V93.6309C38.5508 93.544 38.8333 93.457 39.2027 93.457H187.375V140.001H39.2027Z" fill="#96D9C9"/>
<path d="M344.304 94.1739V268.182C344.304 272.833 340.524 276.613 335.873 276.613H195.154V85.7212H335.873C340.524 85.7212 344.304 89.5021 344.304 94.1739V94.1739Z" fill="#355389"/>
<path d="M117.081 268.835H53.957V216.228H117.081V268.835Z" fill="#F7CC7F"/>
<path d="M187.375 268.834H107.715V205.95H187.375V268.834Z" fill="#FAE0B2"/>
<path d="M187.375 205.95H119.405V146.107H187.375V205.95Z" fill="#F7CC7F"/>
<path d="M333.178 317.704H51.1533V276.614H333.178C337.524 276.614 341.044 280.134 341.044 284.48V309.86C341.044 314.184 337.524 317.704 333.178 317.704Z" fill="#184655"/>
<path d="M53.957 282.154H190.961V312.793H53.957V282.154Z" fill="#3C8F7C"/>
<path d="M186.44 305.926H146.85V293.78H186.44V305.926Z" fill="#F47458"/>
<path d="M186.441 305.926H162.561V293.78H186.441V305.926Z" fill="#B75742"/>
<path d="M102.37 305.926H62.8008V293.78H102.37V305.926Z" fill="#F47458"/>
<path d="M80.7058 305.926H62.8008V293.78H80.7058V305.926Z" fill="#B75742"/>
<path d="M244.915 315.965C244.915 332.262 240.916 345.474 217.405 345.474C201.564 345.474 187.527 332.262 187.527 315.965C187.527 299.668 200.369 286.457 216.232 286.457C232.072 286.457 244.915 299.668 244.915 315.965Z" fill="#13375B"/>
<path d="M253.78 315.161C253.78 332.414 240.09 345.474 224.25 345.474C208.409 345.474 196.393 332.414 196.393 315.161C196.393 297.908 209.235 283.915 225.075 283.915C240.938 283.915 253.78 297.908 253.78 315.161V315.161Z" fill="#13375B"/>
<path d="M426.681 315.856C426.681 332.718 413.839 346.386 397.998 346.386C382.157 346.386 369.315 332.718 369.315 315.856C369.315 298.994 382.157 285.327 397.998 285.327C413.839 285.327 426.681 298.994 426.681 315.856Z" fill="#13375B"/>
<path d="M412.1 315.161C412.1 323.636 405.799 330.502 397.998 330.502C390.197 330.502 383.896 323.636 383.896 315.161C383.896 306.665 390.197 299.799 397.998 299.799C405.799 299.799 412.1 306.665 412.1 315.161Z" fill="#355389"/>
<path d="M239.199 315.161C239.199 323.636 232.876 330.502 225.075 330.502C217.296 330.502 210.973 323.636 210.973 315.161C210.973 306.665 217.296 299.799 225.075 299.799C232.876 299.799 239.199 306.665 239.199 315.161Z" fill="#355389"/>
<path d="M101.37 127.919H128.032C128.032 131.722 124.946 134.786 121.166 134.786H108.237C104.434 134.786 101.37 131.722 101.37 127.919Z" fill="#50BFA5"/>
<path d="M404.973 254.646H425.268V260.861H411.209C407.776 260.861 404.973 258.079 404.973 254.646V254.646Z" fill="#B75742"/>
<path d="M273.591 333.054C274.395 337.552 274.96 339.008 274.96 339.008C270.049 342.376 266.486 339.508 267.985 338.052C268.746 336.661 267.985 333.228 267.225 331.077C269.854 330.533 273.591 333.054 273.591 333.054Z" fill="#FF7446"/>
<path d="M302.823 328.436C303.823 329.957 304.844 330.957 304.844 330.957C301.107 336.215 299.433 333.934 299.433 333.934C298.325 331.869 298.064 331.435 298.064 331.435C300.65 328.784 302.823 328.436 302.823 328.436Z" fill="#FF7446"/>
<path d="M274.655 337.964C274.655 337.964 275.546 339.203 275.785 341.311C276.002 343.418 275.416 345.396 275.416 345.396C275.416 345.396 265.246 345.961 261.248 345.222C257.272 344.483 256.924 343.788 257.011 342.658C257.12 341.528 262.53 341.854 264.138 340.507C265.768 339.159 268.006 336.248 268.962 336.726C269.918 337.182 269.744 339.007 271.026 339.116C272.33 339.225 274.09 337.269 274.655 337.964Z" fill="#09434C"/>
<path d="M303.691 329.305C303.691 329.305 305.212 329.5 306.907 330.739C308.602 331.999 309.667 333.759 309.667 333.759C309.667 333.759 303.213 341.647 299.975 344.081C296.738 346.514 295.977 346.319 295.217 345.471C294.456 344.646 298.346 340.886 298.454 338.779C298.541 336.671 297.911 333.042 298.911 332.651C299.91 332.26 301.127 333.629 302.083 332.76C303.039 331.869 302.778 329.261 303.691 329.305Z" fill="#09434C"/>
<path d="M286.59 268.615C286.59 268.615 282.071 299.427 282.071 303.229C282.071 307.054 303.604 327.306 303.604 327.306C303.604 327.306 301.323 333.238 296.173 333.933C294.913 334.107 272.379 313.529 270.989 310.313C269.402 306.619 265.057 280.501 265.057 280.501C265.057 280.501 255.278 295.19 255.713 298.21C256.387 302.969 274.989 334.457 274.989 334.457C274.989 334.457 272.99 338.868 265.906 335.826C258.822 332.784 242.023 305.294 239.503 302.056C233.592 294.407 260.493 260.01 260.493 260.01L286.59 268.615Z" fill="#3C8F7C"/>
<path opacity="0.3" d="M251.106 297.45C251.106 292.321 264.101 274.417 264.101 274.417L265.057 280.501C265.057 280.501 255.278 295.19 255.713 298.21C256.387 302.969 270.989 328.457 270.989 328.457C270.989 328.457 270.532 329.457 269.294 330.174C262.145 322.938 251.106 302.078 251.106 297.45V297.45Z" fill="#64AEBA"/>
<g opacity="0.5">
<path opacity="0.3" d="M274.072 270.223C274.246 268.571 274.572 266.768 275.007 264.812L286.588 268.615C286.588 268.615 285.98 272.722 285.219 278.132C282.851 279.371 280.569 280.196 279.266 279.957C277.027 279.501 274.072 276.09 274.072 270.223V270.223Z" fill="#64AEBA"/>
</g>
<path d="M275.27 265.942C276.769 251.166 292.762 221.332 298.303 211.336C300.91 211.532 303.235 212.401 304.539 214.487C308.994 221.658 303.583 252.057 298.651 260.966C296.76 264.356 294.544 266.942 292.545 268.832C289.633 271.57 282.875 275.46 280.268 274.96C278.095 274.547 275.248 271.375 275.248 265.942C275.248 265.942 275.255 265.942 275.27 265.942V265.942Z" fill="#F7951F"/>
<path d="M256.473 262.552C256.538 262.444 278.963 216.573 283.852 214.487C283.939 214.443 284.199 214.335 284.351 214.27C287.763 212.879 292.217 211.575 295.868 211.358C297.346 211.249 298.236 211.336 298.302 211.336C292.761 221.332 276.768 251.166 275.269 265.942C269.575 263.161 262.644 260.901 256.473 262.552Z" fill="white"/>
<g opacity="0.5">
<path d="M284.808 237.847C281.288 245.495 278.116 253.405 276.421 259.902C265.469 261.662 262.644 260.641 257.973 259.489C260.254 254.926 261.884 251.753 262.514 250.515L284.808 237.847Z" fill="#DEB6C4"/>
</g>
<path d="M284.114 259.228C282.463 259.619 279.66 259.837 276.422 259.902C278.117 253.405 281.289 245.495 284.809 237.846L306.169 225.7C306.169 225.758 306.162 225.816 306.148 225.874C305.583 235.065 301.715 243.757 295.283 250.341C290.937 254.795 286.613 258.62 284.114 259.228V259.228Z" fill="#D67B0F"/>
<path d="M230.354 209.467H279.137V258.25H230.354V209.467Z" fill="#F7CC7F"/>
<path d="M230.354 209.467H247.455V258.25H230.354V209.467Z" fill="#FAE0B2"/>
<path d="M255.756 255.772C254.518 256.989 246.391 262.617 243.327 261.987C242.393 261.813 240.48 261.987 239.676 261.205C238.872 260.401 239.524 260.075 238.72 260.075C237.916 260.075 234.592 258.336 236.613 257.989C238.655 257.641 246.13 253.556 245.565 253.013C245 252.448 241.002 253.295 240.133 251.296C239.264 249.319 241.241 249.732 243.414 250.427C247.955 251.926 253.8 249.688 254.148 249.667C254.148 249.667 256.973 254.534 255.756 255.772V255.772Z" fill="#FF7446"/>
<path d="M306.016 228.828C303.04 236.151 292.762 245.516 290.676 247.581C288.611 249.667 286.221 253.317 284.157 253.317C282.092 253.317 254.561 257.772 254.561 257.772C254.561 253.643 252.758 249.927 252.758 249.927C252.758 249.927 278.377 241.605 279.528 241.605C280.658 241.605 291.045 222.635 292.914 218.789C294.761 214.965 297.998 211.314 297.998 211.314C307.385 209.728 308.993 221.484 306.016 228.828V228.828Z" fill="#F7951F"/>
<path d="M295.455 201.276L297.998 211.315L285.025 215.921L288.35 201.232L295.455 201.276Z" fill="#FF7446"/>
<g style="mix-blend-mode:multiply" opacity="0.7">
<path d="M288.35 201.232L295.455 201.276L296.042 203.623C294.021 205.687 291.566 207.338 289.567 207.816C288.784 207.99 287.828 208.012 286.851 207.882L288.35 201.232Z" fill="#FF7F4C"/>
</g>
<path d="M300.28 197.603C299.215 200.949 294.956 204.6 291.718 205.013C288.481 205.447 281.962 202.449 282.114 200.602C282.288 198.755 283.526 195.626 283.526 195.626C283.526 195.626 286.003 190.671 288.698 188.89C291.414 187.13 293.63 187.108 293.63 187.108C295.086 186.912 301.366 194.257 300.28 197.603V197.603Z" fill="#FF865E"/>
<g style="mix-blend-mode:multiply" opacity="0.7">
<path d="M287.742 189.65C288.068 189.368 288.372 189.107 288.698 188.89C291.414 187.13 293.631 187.108 293.631 187.108C294.326 187.021 296.086 188.607 297.651 190.672L296.543 190.606C296.543 190.606 292.805 191.628 289.111 190.302C288.633 190.128 288.177 189.911 287.742 189.65V189.65Z" fill="#FF7F4C"/>
</g>
<path d="M290.263 187.455C288.329 184.891 288.438 183.218 290.806 180.872C293.175 178.503 294.479 182.653 294.479 182.653C294.479 182.653 297.542 178.46 299.889 180.632C302.236 182.784 298.933 185.565 300.193 186.891C301.454 188.194 302.627 186.999 303.279 188.911C303.931 190.824 302.475 191.084 303.409 191.801C304.366 192.54 308.559 196.473 304.844 201.297C301.128 206.099 296.782 206.251 294.066 204.839C294.066 204.839 293.653 200.993 294.457 197.169C295.283 193.344 296.543 190.606 296.543 190.606C296.543 190.606 292.219 190.02 290.263 187.455Z" fill="#0D074B"/>
<path d="M294.456 195.408C294.456 195.408 297.39 193.974 297.39 196.473C297.39 198.95 296.39 200.297 294.934 199.667C293.478 199.059 294.456 195.408 294.456 195.408V195.408Z" fill="#FF865E"/>
</svg>
